<svg xmlns="http://www.w3.org/2000/svg" width="282" height="47" viewBox="0 0 282 47"><path fill="#000064" d="M90.4681194,11.8965517 L75.2535613,45.3028017 L81.5732116,45.3028017 L84.7716052,38.2367127 L101.064221,38.2367127 L104.215218,45.3028017 L110.632915,45.3028017 L95.3681718,11.8965517 L90.4681194,11.8965517 Z M87.1837599,32.8152155 L92.9620578,19.950753 L98.6590367,32.8152155 L87.1837599,32.8152155 Z M106.450329,11.8965517 L134.026309,11.8965517 L134.026309,17.365102 L123.23783,17.365102 L123.23783,45.3028017 L117.239738,45.3028017 L117.239738,17.365102 L106.450329,17.365102 L106.450329,11.8965517 Z M151.236669,11.8965517 L159.129261,11.8965517 L159.129261,17.4578506 L151.427652,17.4578506 C145.334301,17.4578506 142.37243,19.9462287 142.37243,25.066406 L142.37243,45.3028017 L136.374803,45.3028017 L136.374803,25.066406 C136.374803,16.8199209 141.930519,11.8965517 151.236669,11.8965517 M187.839526,11.8965517 L193.837152,11.8965517 L193.837152,30.8769951 C193.837152,39.7813169 187.509603,46 178.449733,46 C169.389864,46 163.062314,39.7813169 163.062314,30.8769951 L163.062314,11.8965517 L169.059941,11.8965517 L169.059941,30.8769951 C169.059941,35.6827319 171.963263,40.5319022 178.449733,40.5319022 C184.936204,40.5319022 187.839526,35.6827319 187.839526,30.8769951 L187.839526,11.8965517 Z M225.113381,11.8965517 L231.525967,11.8965517 L216.758431,45.3028017 L212.136258,45.3028017 L197.269745,11.8965517 L203.826847,11.8965517 L214.493115,36.8604134 L225.113381,11.8965517 Z M235.574261,11.8965517 L241.572352,11.8965517 L241.572352,45.3028017 L235.572402,45.3028017 L235.574261,11.8965517 Z M265.734327,11.8965517 L260.835669,11.8965517 L245.621111,45.3028017 L251.940761,45.3028017 L255.139155,38.2367127 L271.431306,38.2367127 L274.582302,45.3028017 L281,45.3028017 L265.734327,11.8965517 Z M257.551774,32.8152155 L263.329607,19.950753 L269.026121,32.8152155 L257.551774,32.8152155 Z M51.5180891,16.985769 L42.4126523,16.985769 L42.4126523,14.5475983 C42.4126523,9.39523767 46.2227219,5.65839609 51.4802109,5.65839609 L63.5358832,5.65839609 L63.5358832,0 L51.4802109,0 C43.0111272,0 36.5879378,6.27759943 36.5879378,14.5071155 L36.5879378,16.9880692 L29.8603026,16.9880692 L29.8603026,0.318802316 L3.48052968,0.318802316 L3.48052968,5.65517586 L24.0355881,5.65517586 L24.0355881,16.985769 L14.9301513,16.985769 C6.22432909,16.985769 0,23.4938446 0,31.4928845 C0,39.7362015 6.22432909,46 14.9301513,46 C23.4371132,46 29.8598291,39.7362015 29.8598291,31.5089856 L29.8598291,22.6450852 L36.5869908,22.6450852 L36.5869908,31.5085256 C36.5869908,39.7362015 43.0101803,46 51.5171421,46 C60.2229644,46 66.4472934,39.7357415 66.4472934,31.4924245 C66.4472934,23.4933845 60.2229644,16.985309 51.5171421,16.985309 M24.0355881,31.4928845 L24.0355881,31.4928845 C24.0355881,36.5992419 20.2255185,40.3406838 14.9301513,40.3406838 C9.43781771,40.3406838 5.82471447,36.6015421 5.82471447,31.4928845 C5.82471447,26.6165432 9.43592381,22.6450852 14.9301513,22.6450852 L24.0355881,22.6450852 L24.0355881,31.4928845 Z M51.5180891,40.3406838 C46.2227219,40.3406838 42.4126523,36.6015421 42.4126523,31.4928845 L42.4126523,31.4928845 L42.4126523,22.6450852 L51.5180891,22.6450852 C57.0104227,22.6450852 60.6235259,26.614703 60.6235259,31.4928845 C60.6235259,36.5992419 57.0123166,40.3406838 51.5180891,40.3406838" transform="translate(.5 .5)"/></svg>